<?xml version="1.0" encoding="utf-8"?>
<!-- Generator: Adobe Illustrator 28.3.0, SVG Export Plug-In . SVG Version: 6.00 Build 0)  -->
<svg version="1.1" id="Layer_1" xmlns="http://www.w3.org/2000/svg" xmlns:xlink="http://www.w3.org/1999/xlink" x="0px" y="0px"
	 viewBox="0 0 398.8 103.1" style="enable-background:new 0 0 398.8 103.1;" xml:space="preserve">
<style type="text/css">
	.st0{fill:#231F20;}
	.st1{font-family:'FormaDJRDisplay-Medium';}
	.st2{font-size:42px;}
	.st3{fill:#231F20;stroke:#231F20;stroke-width:2;stroke-miterlimit:10;}
</style>
<g>
	<g>
		<path class="st0" d="M119.6,32.2c0.3-0.1,0.7,0,0.7,0.4c1.2,6.1-2.9,13.3-12.4,16.8c-11.4,4.1-20-0.6-23.4-10.2
			c-3.6-10,0.5-19,11.4-22.9s19.9,0.6,24,11.5c0.1,0.3-0.1,0.6-0.4,0.8l-24.3,8.7c2.5,5.8,6,7.5,10.8,5.8c3.3-1.2,5.2-3.5,4.9-7.2
			c0-0.3,0.2-0.7,0.5-0.8L119.6,32.2L119.6,32.2z M98,22.3c-4,1.4-5.6,4.5-4.8,9.1l14-5C105.6,23.2,102.4,20.7,98,22.3L98,22.3z"/>
		<path class="st0" d="M133.5,37.5l0.2,11.4c0,0.3-0.3,0.6-0.6,0.6h-9.6c-0.3,0-0.6-0.3-0.6-0.6l0.2-11.4L123,16.6
			c0-0.3,0.3-0.6,0.6-0.6h9c0.4,0,0.6,0.3,0.6,0.6l-0.2,3.6c2.5-3.2,5.8-5,10.4-5c5.1,0,8.6,2,10.3,6.3c3.1-5.1,6.8-6.3,11-6.3
			c7.3,0,11.5,4.1,11.5,13v9.2l0.1,11.4c0,0.3-0.3,0.6-0.6,0.6h-9.5c-0.4,0-0.6-0.3-0.6-0.6l0.2-11.4v-9.1c0-4-1.8-6-4.6-6
			s-6.4,3.6-6.4,10.4v4.7l0.2,11.4c0,0.3-0.3,0.6-0.6,0.6H145c-0.4,0-0.6-0.3-0.6-0.6l0.2-11.4v-9.1c0-4-1.7-6-4.6-6
			s-6.4,3.6-6.4,10.4L133.5,37.5L133.5,37.5z"/>
		<path class="st0" d="M200.3,50.2c-4.5,0-8-1.5-10.5-4.2l0.2,3c0,0.3-0.3,0.6-0.6,0.6H180c-0.4,0-0.6-0.3-0.6-0.6l0.2-22.2
			l-0.2-22.2c0-0.3,0.3-0.6,0.6-0.6h9.4c0.4,0,0.6,0.3,0.6,0.6l-0.1,15.3c2.5-2.9,6.1-4.5,10.6-4.5c10.3,0,15.7,7.5,15.7,17.3
			S210.2,50.2,200.3,50.2L200.3,50.2z M197.4,43.5c5.3,0.1,8.1-3.7,8.1-10.5c0-7.4-2.8-11.1-7.9-11c-5.1,0-7.9,3.5-7.9,10.4
			C189.5,39.6,192.3,43.5,197.4,43.5L197.4,43.5z"/>
		<path class="st0" d="M244.8,49.5c-0.4,0-0.6-0.3-0.6-0.6l0.1-3.3c-2.5,2.9-6.1,4.5-10.7,4.5c-10.3,0-15.7-7.5-15.7-17.3
			s6.1-17.5,15.9-17.5c4.5,0,8,1.5,10.5,4.2l-0.2-3c0-0.3,0.3-0.6,0.6-0.6h9.4c0.4,0,0.6,0.3,0.6,0.6l-0.2,16.2l0.2,16.1
			c0,0.3-0.3,0.6-0.6,0.6L244.8,49.5L244.8,49.5z M236.5,43.7c5.1,0,7.9-3.6,7.9-10.7c0.1-7.1-2.7-11-7.7-11.1
			c-5.3-0.1-8.1,3.6-8.1,10.5C228.7,39.9,231.5,43.7,236.5,43.7L236.5,43.7z"/>
		<path class="st0" d="M274.8,50.3c-10.5,0-17.3-4-17.6-11.4c0-0.3,0.3-0.6,0.6-0.6h9c0.4,0,0.6,0.3,0.6,0.6c0.3,3.8,3,5.4,7.9,5.4
			c4.1,0,6.4-1.5,6.4-4.1c0-6.4-23.7-0.2-23.7-14.2c0-7,6-10.7,15.8-10.7s15.9,3.5,16.5,10.5c0.1,0.3-0.2,0.6-0.6,0.6h-8.6
			c-0.4,0-0.6-0.3-0.7-0.6c-0.6-2.9-2.5-4.6-6.8-4.6c-3.5,0-5.6,1.2-5.6,4c0,6.4,23.7-0.1,23.7,14.1
			C291.7,46.3,284.6,50.3,274.8,50.3z"/>
		<path class="st0" d="M311,50.3c-10.5,0-17.3-4-17.6-11.4c0-0.3,0.3-0.6,0.6-0.6h9c0.4,0,0.6,0.3,0.6,0.6c0.3,3.8,3,5.4,7.9,5.4
			c4.1,0,6.4-1.5,6.4-4.1c0-6.4-23.7-0.2-23.7-14.2c0-7,6-10.7,15.8-10.7s15.9,3.5,16.5,10.5c0.1,0.3-0.2,0.6-0.6,0.6h-8.6
			c-0.4,0-0.6-0.3-0.7-0.6c-0.6-2.9-2.5-4.6-6.8-4.6c-3.5,0-5.6,1.2-5.6,4c0,6.4,23.7-0.1,23.7,14.1C327.9,46.3,320.8,50.3,311,50.3
			z"/>
		<path class="st0" d="M347.5,60.5c-0.1,0.3-0.5,0.1-0.9,0.1h-8.8c-0.3,0-0.7,0.2-0.6-0.1l4-10.6l-14.5-33.3
			c-0.1-0.3,0.1-0.5,0.4-0.5h10.6c0.4,0,0.7,0.3,0.8,0.5l7.9,20.9l6.5-20.9c0.1-0.3,0.4-0.6,0.8-0.6h9.4c0.4,0,0.6,0.3,0.4,0.6
			L347.5,60.5L347.5,60.5z"/>
	</g>
	<g>
		<path class="st0" d="M148.8,93.6c-0.4,0-0.6-0.3-0.6-0.6l0.2-15.5l-0.1-16.8c0-0.3,0.3-0.6,0.6-0.6h8.9c0.4,0,0.6,0.3,0.6,0.6
			l-0.2,3.6c2.5-2.9,6.6-5,11.7-5c7.7,0,12.6,4.8,12.6,13v7l0.2,13.7c0,0.3-0.3,0.6-0.6,0.6h-9.4c-0.4,0-0.6-0.3-0.6-0.6l0.1-13.7
			v-6.9c0-3.6-2.3-6-5.5-6c-3.8,0-7.9,3.2-7.9,10.4v2.5L159,93c0,0.3-0.3,0.6-0.6,0.6L148.8,93.6L148.8,93.6z"/>
		<path class="st0" d="M221.1,76.3c0.3-0.1,0.7,0,0.7,0.4c1.2,6.1-2.9,13.3-12.4,16.8c-11.4,4.1-20-0.6-23.4-10.2
			c-3.6-10,0.5-19,11.4-22.9s19.9,0.6,24,11.6c0.1,0.3-0.1,0.7-0.4,0.8l-24.4,8.7c2.5,5.8,6,7.5,10.8,5.8c3.3-1.2,5.2-3.4,4.9-7.2
			c0-0.3,0.2-0.7,0.5-0.8L221.1,76.3L221.1,76.3z M199.6,66.4c-4,1.4-5.6,4.5-4.8,9.1l14-5C207.2,67.3,204,64.8,199.6,66.4
			L199.6,66.4z"/>
		<path class="st0" d="M245.6,92.4c0,0.3-0.3,0.7-0.6,0.8c-2,0.7-4.4,1.1-6.6,1.1c-6.1,0-11.9-2.9-11.9-10.5l0.1-16.8h-4.1
			c-0.4,0-0.6-0.3-0.6-0.6v-5.7c0-0.3,0.3-0.6,0.6-0.6h4.1l-0.1-7.8c0-0.3,0.3-0.6,0.6-0.6h9.4c0.4,0,0.6,0.3,0.6,0.6l-0.1,7.8h8
			c0.4,0,0.6,0.3,0.6,0.6v5.7c0,0.3-0.3,0.6-0.6,0.6H237l0.1,16.5c0,2.9,1.6,3.8,3.9,3.8c1.7,0,3-0.3,4.1-0.6
			c0.4-0.1,0.6,0.2,0.6,0.5L245.6,92.4L245.6,92.4z"/>
		<path class="st0" d="M278.6,93.6c-0.4,0-0.7-0.3-0.8-0.6l-5.7-24.6L267.2,93c-0.1,0.3-0.4,0.6-0.8,0.6h-11.1
			c-0.4,0-0.7-0.3-0.8-0.6l-7.7-32.3c-0.1-0.3,0.2-0.6,0.5-0.6h9.4c0.4,0,0.7,0.3,0.7,0.6l4.1,24.6l5-24.6c0.1-0.3,0.4-0.6,0.8-0.6
			h11.5c0.4,0,0.7,0.3,0.8,0.6l4.8,24.2l4.3-24.2c0-0.3,0.4-0.6,0.7-0.6h8.5c0.4,0,0.6,0.3,0.5,0.6L290.5,93
			c-0.1,0.3-0.4,0.6-0.8,0.6H278.6z"/>
		<path class="st0" d="M316.1,94.4c-11.8,0-18.6-6.8-18.6-17.5s6.8-17.7,18.6-17.7s18.5,6.8,18.5,17.5S328,94.4,316.1,94.4z
			 M316.1,87.9c5.2,0,7.7-3.3,7.7-11s-2.5-11.2-7.7-11.2c-5.3,0.1-7.8,3.7-7.8,11.2S310.9,87.9,316.1,87.9L316.1,87.9z"/>
		<path class="st0" d="M337.8,93.6c-0.4,0-0.6-0.3-0.6-0.6l0.3-16.2l-0.3-16.1c0-0.3,0.3-0.6,0.6-0.6l9.1-0.1c0.4,0,0.6,0.2,0.6,0.5
			l0,5.3c2.8-4,7.7-5.9,12.9-5.9c0.6,0,1.1,0.1,1.6,0.1c0.4,0.1,0.6,0.4,0.6,0.7v6c0,0.3-0.3,0.5-0.6,0.5c-0.4-0.1-0.9-0.1-1.3-0.1
			c-7.5,0-13,3.8-12.9,11.5V93c0,0.3-0.3,0.6-0.6,0.6H337.8z"/>
		<path class="st0" d="M382.8,86.6l-4.5-7.4l-3.5,4l0.1,9.8c0,0.3-0.3,0.6-0.6,0.6h-9.2c-0.4,0-0.6-0.3-0.6-0.6l0.3-22.2l-0.3-22.2
			c0-0.3,0.3-0.6,0.6-0.6h9.2c0.4,0,0.6,0.3,0.6,0.6l-0.2,22v2l10.5-12.1c0.3-0.3,0.7-0.5,1-0.5h10.3c0.3,0,0.4,0.3,0.2,0.5
			l-11.2,11.6l13.1,20.9c0.1,0.3-0.1,0.5-0.4,0.5h-11c-0.4,0-0.8-0.2-0.9-0.5L382.8,86.6L382.8,86.6z"/>
	</g>
	<text transform="matrix(1 0 0 1 368.11 35.7)" class="st0 st1 st2">™</text>
	<polygon class="st3" points="26.9,61.6 27.5,80.7 48.5,32 82.5,81.1 13.9,92.2 21.4,75.3 21.3,57.4 1.7,101.8 96.1,86.6 46.7,16.1 
			"/>
</g>
</svg>
