<svg width="383" height="266" viewBox="0 0 383 266" fill="none" xmlns="http://www.w3.org/2000/svg">
<path d="M13.3467 262.18C42.004 217.509 79.3708 178.456 122.638 147.551C166.185 116.365 215.352 93.0463 267.048 79.5605C295.986 71.9748 325.767 67.4795 355.548 66.6367C364.539 66.3557 364.539 52.308 355.548 52.589C300.2 54.5557 245.695 67.7604 194.843 89.9558C144.552 112.151 98.1947 143.899 59.1422 182.67C37.2278 204.585 17.842 228.747 0.984773 254.875C-3.51048 262.742 8.5705 269.766 13.3467 262.18Z" fill="black"/>
<path d="M258.9 14.0985C299.638 19.4366 338.972 36.5748 370.72 62.9844C371.843 59.0511 372.686 55.1177 373.81 51.1843C340.377 62.7034 308.629 78.9987 280.253 99.7893C277.162 102.037 275.757 105.97 277.724 109.342C279.41 112.432 284.186 114.118 287.276 111.87C314.81 91.9226 345.153 75.9082 377.463 64.6701C381.958 62.9844 385.048 56.5225 380.553 52.8701C345.715 24.2128 303.572 5.95081 258.619 0.0507876C254.967 -0.511119 251.595 3.70318 251.595 7.07462C251.876 11.2889 254.967 13.5366 258.9 14.0985Z" fill="black"/>
</svg>
