<?xml version="1.0" encoding="UTF-8"?>
<svg id="Layer_1" data-name="Layer 1" xmlns="http://www.w3.org/2000/svg" viewBox="0 0 178.58 48.84">
  <defs>
    <style>
      .cls-1 {
        fill: #283c97;
      }
    </style>
  </defs>
  <path class="cls-1" d="M12.15,18.78c-.4,.52-.84,.93-1.26,1.36-1.27,1.29-1.97,2.87-2.37,4.61-.16,.67-.27,1.35-.55,1.98-.04,.08-.06,.18-.13,.24-.51,.5-.53,1.11-.41,1.75,.12,.63,.25,1.27,.35,1.9,.13,.79,.06,1.55-.4,2.25-.17,.26-.38,.47-.7,.54-.24,.06-.38,.23-.5,.43-.68,1.09-.76,2.24-.36,3.45,.25,.77,.62,1.48,.89,2.24,.33,.9,.5,1.84,.69,2.78,0,.04,.02,.08-.03,.13-.49-.45-.84-.99-1.13-1.58-.46-.92-.9-1.85-1.34-2.78-.22-.47-.28-.98-.34-1.49-.08-.74-.11-1.47,.03-2.2,.1-.52,.36-.95,.86-1.17,.53-.23,.87-.63,1.18-1.09,.34-.49,.43-.96,.24-1.54-.22-.69-.35-1.41-.37-2.15-.02-1.06,.18-2.09,.5-3.09,.43-1.35,.82-2.73,1.46-4.01,.35-.71,.78-1.37,1.29-1.97,.28-.33,.26-.46-.11-.7-.33-.21-.7-.31-1.07-.44-.55-.19-1.1-.35-1.62-.62-.55-.29-.72-.84-.42-1.33,.06-.1,.14-.19,.27-.21,1.39-.25,2.79-.5,4.21-.53,.58,0,1.13,.15,1.69,.26,.97,.2,1.97,.18,2.95,.28,1.12,.11,2.11-.27,3.11-.65,4.52-1.69,9.01-3.45,13.56-5.06,5.57-1.97,11.07-4.11,16.57-6.25,.25-.1,.49-.23,.64-.47,.08-.13,.22-.14,.35-.17,.7-.15,1.42-.14,2.13-.15,2.33-.03,4.65-.04,6.98-.07,2-.03,3.99-.08,5.99-.07,2.78,.02,5.55,.11,8.33,.23,1.59,.07,3.19,.11,4.78,.18,2.52,.11,5.04,.23,7.56,.39,1.91,.12,3.82,.26,5.72,.38,1.53,.1,3.06,.23,4.58,.42,1.91,.23,3.82,.42,5.67,.95,1.12,.32,2.16,.83,3.19,1.34,4.42,2.17,8.64,4.7,12.8,7.34,2.28,1.45,4.52,2.96,6.83,4.35,.75,.45,1.5,.88,2.3,1.23,.05,.02,.09,.04,.13,.07,.08,.04,.14,.09,.14,.19,0,.1-.07,.14-.16,.17-.13,.05-.26,.09-.39,.16,.08,0,.16,0,.24,0,1.87-.02,3.74,.03,5.61,.16,1.29,.09,2.57,.21,3.86,.32,.49,.04,.99,.08,1.48,.03,1.08-.1,2.14,.06,3.21,.17,1.58,.17,3.17,.37,4.74,.58,1.8,.24,3.6,.5,5.4,.77,3.82,.58,7.57,1.46,11.29,2.5,1.83,.51,3.64,1.09,5.44,1.72,.98,.35,1.87,.83,2.48,1.71,.39,.56,.58,1.22,.81,1.86,.31,.89,.59,1.8,.52,2.77-.04,.54-.07,1.09-.12,1.63-.03,.36-.02,.72,.01,1.08,.02,.28,.05,.56-.09,.81-.05,.09,0,.12,.07,.17,.49,.31,.99,.54,1.61,.44,.29-.05,.6,.06,.89,.14,.61,.18,1.22,.37,1.83,.54,.13,.04,.19,.05,.11,.22-.21,.47-.38,.95-.75,1.32-.06,.06-.08,.16-.09,.26-.13,1.11-.18,2.22,.09,3.32,.04,.17,0,.33-.08,.48-.44,.81-1.06,1.46-1.77,2.06,.14-.49,.29-.99,.43-1.48,.26-.88,.5-1.77,.65-2.68,.05-.31,.05-.61,0-.92-.05-.31-.05-.62,.03-.92,.19-.77-.27-1.3-1.08-1.24-.66,.05-1.32,.17-1.98,.14-.24,0-.49-.03-.72-.12-.24-.09-.41-.28-.37-.54,.13-.8,0-1.61,.1-2.41,.01-.09,.01-.19,.05-.27,.26-.54,.19-1.09,.05-1.64-.22-.85-.47-1.69-.81-2.51-.69-1.67-1.92-2.76-3.62-3.28-2.79-.86-5.58-1.69-8.38-2.49-2.05-.58-4.15-.96-6.25-1.29-2.54-.41-5.11-.65-7.65-1.02-2.32-.34-4.65-.54-6.98-.66-1.57-.08-3.13-.26-4.68-.45-.85-.11-1.71-.07-2.56-.09-1.21-.03-2.42-.03-3.6-.3-.81-.18-1.53-.53-2.16-1.07-1.01-.86-2.11-1.6-3.23-2.31-1.61-1-3.21-2.01-4.79-3.06-1.78-1.19-3.73-2.09-5.6-3.11-1.04-.57-2.05-1.21-3.14-1.7-.84-.37-1.72-.66-2.58-.99-.58-.22-1.1-.52-1.56-.95-.55-.51-1.23-.78-1.94-.95-1.56-.37-3.1-.79-4.69-1.04-.99-.16-1.99-.27-3-.33-2.87-.16-5.75-.29-8.62-.47-2.1-.14-4.2-.35-6.29-.52-1.5-.12-2.99-.23-4.49-.28-2.63-.09-5.26-.04-7.88-.05-2.43,0-4.87-.06-7.3-.11-1.69-.03-3.39-.09-5.08-.06-1.02,.02-2.05,0-3.05,.28-.28,.08-.57,.16-.82,.3-1.64,.88-3.39,1.53-5.1,2.26-3.23,1.4-6.54,2.58-9.86,3.76-4.55,1.61-9.05,3.34-13.53,5.13-1.29,.51-2.63,.91-4.01,1.1-1.07,.15-2.14,.09-3.22,0-1.64-.13-3.26-.43-4.9-.53-.17-.01-.35,0-.53,.02-.04,0-.1,.03-.12,.07-.03,.06,.02,.11,.07,.15,.22,.18,.48,.3,.74,.43,.69,.36,1.39,.7,2.03,1.15,.25,.18,.55,.19,.9,.15Z"/>
  <path class="cls-1" d="M48.86,22.36c-1.06,.95-2.03,1.96-3.01,2.96-1.04,1.07-2.08,2.14-3.13,3.21-1.68,1.72-3.35,3.43-5.03,5.15-.12,.12-.25,.19-.42,.19-1.65,0-3.31-.02-4.96-.02-.05,0-.13,.03-.16-.04-.03-.09,.07-.13,.11-.18,2.12-2.38,4.25-4.75,6.37-7.13,1.32-1.48,2.64-2.95,3.95-4.43,.16-.18,.33-.25,.57-.25,1.11,0,2.22-.01,3.33,0,2,.04,4,0,5.99,.02,2.98,.01,5.96,.01,8.94,.02,.84,0,1.68,0,2.52,.01,.31,0,.33,.04,.24,.34-.24,.77-.47,1.54-.7,2.3-.11,.36-.16,.4-.53,.4-1.81,0-3.63,0-5.44-.01-1.18,0-2.37-.02-3.55-.03-.24,0-.36,.1-.43,.33-.51,1.7-1.03,3.4-1.54,5.1-.15,.49,0,.69,.5,.69,2.03,0,4.06-.01,6.1-.02,.9,0,1.8,0,2.7,0,.34,0,.39,.07,.3,.39-.22,.77-.46,1.54-.68,2.31-.06,.19-.17,.26-.37,.26-2.86,0-5.71,0-8.57-.02-1.28,0-2.55-.02-3.83-.03-.84,0-1.46-.37-1.86-1.12-.19-.36-.4-.72-.39-1.15,0-.19,.06-.36,.11-.54,.93-2.82,1.87-5.64,2.8-8.46,.03-.08,.08-.15,.04-.26Z"/>
  <path class="cls-1" d="M89.88,34.02c-1.52-.03-3.04-.02-4.56-.02-2.17,0-4.34-.01-6.52-.02-.18,0-.37-.02-.55-.06-.71-.17-1.07-.79-.87-1.56,.44-1.68,.89-3.35,1.34-5.02,.34-1.28,.69-2.55,1.04-3.83,.11-.42,.29-.8,.6-1.12,.31-.31,.69-.47,1.13-.47,3.89,.01,7.79,.03,11.68,.04,.21,0,.42-.02,.63,0,.57,.08,.93,.6,.84,1.2-.1,.61-.33,1.17-.52,1.75-.94,2.92-1.89,5.85-2.82,8.77-.08,.25-.21,.34-.45,.33-.33-.01-.65,0-.98,0Zm-4.17-9.16s0-.02,0-.03c-.32,0-.64,.02-.96,0-.27-.02-.39,.1-.45,.35-.18,.72-.39,1.44-.59,2.15-.28,1.01-.57,2.01-.84,3.02-.12,.44,.08,.72,.5,.72,1.21,.02,2.41,.02,3.62,.04,.19,0,.29-.07,.34-.25,.6-1.91,1.2-3.83,1.82-5.74,.07-.22,0-.26-.2-.26-1.08,0-2.16,0-3.25,0Z"/>
  <path class="cls-1" d="M21.92,33.82c-1.89,0-3.78,0-5.67,0-.45,0-.91,.02-1.35-.06-1.34-.23-2.15-1.64-1.72-2.95,.5-1.51,1.01-3.01,1.52-4.52,.46-1.4,.93-2.8,1.38-4.2,.08-.26,.21-.34,.48-.34,2.31,.01,4.62-.02,6.93,.02,2.53,.04,5.07,0,7.6,.03,.3,0,.31,.02,.23,.3-.24,.8-.49,1.6-.72,2.4-.07,.25-.2,.35-.46,.34-2.22-.01-4.45-.01-6.67-.02-.8,0-1.59-.02-2.39-.03-.22,0-.33,.07-.4,.29-.51,1.71-1.03,3.41-1.55,5.12-.16,.52,0,.72,.55,.72,2.84,0,5.67-.02,8.51-.03,.15,0,.3,.01,.45,.01,.14,0,.18,.08,.14,.2-.26,.87-.52,1.73-.78,2.6-.05,.18-.19,.16-.32,.16-1.91,0-3.83,0-5.74,0,0,0,0-.01,0-.02Z"/>
  <path class="cls-1" d="M104.81,27.95c.35-.98,.68-1.9,1.01-2.82,.33-.94,.67-1.87,1-2.82,.08-.23,.19-.31,.44-.31,1.27,.01,2.54,0,3.8,0,.3,0,.32,.02,.23,.32-1,3.28-2.01,6.56-3.01,9.85-.17,.54-.33,1.09-.49,1.63-.06,.2-.16,.29-.38,.28-1.54-.01-3.09-.01-4.63-.01-.23,0-.34-.11-.44-.3-1.17-2.33-2.34-4.65-3.52-6.98-.77-1.52-1.54-3.05-2.31-4.57-.12-.24-.12-.25,.14-.25,1.01,0,2.01,.02,3.02,.02,.33,0,.66-.04,.98-.02,.78,.06,1.3,.53,1.7,1.16,.41,.65,.7,1.37,1.06,2.05,.47,.9,.92,1.8,1.41,2.76Z"/>
  <path class="cls-1" d="M73.99,33.94c-3.13,0-6.26,0-9.4,0-.86,0-1.53-.44-2.12-1.01-.13-.12-.16-.3-.19-.48-.17-1.03,.04-2,.39-2.98,.87-2.4,1.69-4.82,2.52-7.23,.08-.25,.22-.34,.48-.34,1.6,.01,3.21,.02,4.81,.01,.24,0,.23,.07,.17,.26-.93,2.87-1.86,5.73-2.78,8.6-.1,.31-.1,.31,.24,.31,2.37,0,4.74,0,7.1,0,.61,0,1.23,0,1.84,.01,.31,0,.32,.02,.26,.31-.17,.76-.35,1.52-.52,2.28-.05,.23-.16,.31-.4,.31-.8-.01-1.6,0-2.39,0,0-.01,0-.03,0-.04Z"/>
  <path class="cls-1" d="M29.36,17.72c1.56,.08,3.09,.16,4.61,.24,1.23,.06,2.46,.12,3.69,.19,2.63,.14,5.27,.18,7.9,.2,2.16,.02,4.31,.12,6.46,.18,1.54,.04,3.09,.09,4.63,.13,2.43,.06,4.86,.11,7.29,.23,1.62,.08,3.23,.15,4.85,.22,2.25,.1,4.51,.21,6.76,.3,1.73,.07,3.47,.13,5.2,.2,2.03,.08,4.06,.16,6.08,.25,1.85,.08,3.7,.16,5.55,.25,2.13,.1,4.26,.2,6.38,.3,1.95,.09,3.9,.17,5.86,.25,1.62,.07,3.24,.11,4.85,.15,2.2,.06,4.4,.09,6.6,.09,1.48,0,2.95,0,4.43,0,0,.03,0,.05,0,.08-1.32,.04-2.64,.08-3.96,.13-3.07,.1-6.14,.18-9.21,.15-1.31-.01-2.62-.02-3.93-.03-1.89-.02-3.78-.02-5.67-.05-1.89-.04-3.79-.11-5.68-.17-1.24-.04-2.48-.08-3.72-.12-2.26-.08-4.53-.15-6.79-.23-1.29-.04-2.58-.08-3.87-.13-2.23-.09-4.46-.19-6.69-.27-1.43-.05-2.87-.09-4.3-.13-2.16-.05-4.31-.1-6.47-.15-1.69-.04-3.39-.06-5.08-.1-2.14-.05-4.28-.09-6.42-.15-1.38-.04-2.77-.09-4.15-.19-1.23-.08-2.45-.25-3.67-.46-1.19-.21-2.39-.32-3.59-.44-1.41-.15-2.82-.29-4.23-.44-1.16-.12-2.32-.24-3.48-.36-.08,0-.17,0-.26-.11Z"/>
  <path class="cls-1" d="M92.8,34.02c1.03-3.56,2.05-7.12,3.09-10.74,.25,.46,.47,.87,.69,1.28,.46,.87,.92,1.75,1.39,2.62,.1,.18,.12,.36,.06,.55-.59,2-1.17,4-1.75,6-.06,.2-.16,.32-.38,.32-1,0-2,0-3-.01-.02,0-.05,0-.1-.02Z"/>
  <path class="cls-1" d="M137.21,39.53c0-1.11,0-2.21,0-3.32,0-.24,.07-.32,.32-.32,1.54,0,3.09,0,4.63,0,.85,0,1.41,.55,1.38,1.4-.03,.81-.01,1.61-.02,2.41,0,.78-.49,1.28-1.27,1.29-1.04,0-2.08,0-3.12,0-.3,0-.36,.04-.35,.34,.03,.51,0,1.02,.02,1.53,0,.21-.07,.3-.29,.29-.32-.02-.64,0-.96,0-.34,0-.34,0-.34-.35,0-1.09,0-2.18,0-3.27Zm3.16-.1c.45,0,.91,0,1.36,0,.17,0,.24-.04,.24-.22,0-.51,0-1.02,0-1.53,0-.16-.06-.22-.22-.22-.91,0-1.83,0-2.74,0-.18,0-.23,.07-.23,.24,0,.49,0,.99,0,1.48,0,.2,.08,.26,.27,.25,.44-.01,.89,0,1.33,0Z"/>
  <path class="cls-1" d="M34.49,29c-.58-2.43-1.15-4.81-1.73-7.2,.15,0,.28,0,.4,0,1.43,0,2.85,0,4.28,0,.45,0,.82,.15,1.11,.49,.38,.44,.5,.98,.53,1.53,.02,.29-.17,.52-.37,.72-.75,.78-1.5,1.56-2.24,2.34-.55,.58-1.09,1.16-1.63,1.74-.1,.11-.21,.22-.36,.37Z"/>
  <path class="cls-1" d="M101.6,35.89c.86,0,1.71,0,2.57,0,.73,0,1.17,.32,1.32,.92,.03,.1,.04,.22,.04,.32,0,1.14,.02,2.28,.02,3.42,0,.34-.05,.37-.38,.35-.29-.02-.59-.02-.88,0-.27,.03-.33-.03-.33-.3,0-.94,0-1.88,0-2.82,0-.33,0-.33-.34-.33-.21,0-.42,.01-.63,0-.23-.02-.3,.07-.3,.29,0,.95,0,1.9,0,2.84,0,.3-.05,.34-.33,.31-.32-.03-.64-.03-.95,0-.2,.02-.29-.04-.29-.26,.01-.95,0-1.9,.02-2.84,0-.3-.03-.34-.34-.34-.22,0-.44,.02-.65,0-.25-.03-.31,.09-.31,.3,.01,.87,.02,1.74,.02,2.62,0,.45,.07,.57-.51,.51-.26-.03-.52,0-.78,.01-.2,.01-.31-.04-.31-.27,.01-1.38,0-2.77,.01-4.15,0-.42,.18-.59,.63-.6,.9,0,1.8,0,2.7,0Z"/>
  <path class="cls-1" d="M134.3,35.89c.79,0,1.58,0,2.37,0,.19,0,.27,.05,.26,.26-.02,.36-.02,.72,0,1.08,0,.21-.08,.25-.26,.25-1.33,0-2.65,0-3.98,0-.07,0-.13,0-.2,0-.1,0-.14,.06-.14,.14,0,.1,.04,.16,.15,.16,.03,0,.07,0,.1,0,1.04,0,2.08,.04,3.12,0,.85-.04,1.44,.61,1.37,1.45-.01,.17,0,.34,0,.5-.01,.66-.51,1.14-1.17,1.17-1.24,.05-2.48-.02-3.73,0-.33,0-.65,.02-.98,.02-.32,0-.33-.01-.33-.32,0-.33,.01-.66,0-.98-.01-.23,.07-.3,.29-.29,.84,0,1.68,0,2.52,0,.52,0,1.04,0,1.56,0,.11,0,.28,.09,.28-.13,0-.22-.17-.16-.3-.16-1.01,0-2.02,0-3.02,0-.89,0-1.39-.48-1.42-1.37,0-.27-.01-.54,.04-.8,.12-.55,.58-.95,1.14-.95,.78,0,1.56,0,2.34,0h0Z"/>
  <path class="cls-1" d="M117.82,38.38c0-.4,0-.8,0-1.21,0-.74,.49-1.26,1.23-1.27,1.32-.01,2.63-.01,3.95,0,.58,0,1.06,.47,1.11,1.07,.07,.83,.03,1.66,.02,2.49,0,.22,.01,.44-.07,.65-.18,.46-.52,.75-1.01,.78-.68,.05-1.36,.02-2.04,.02-.64,0-1.27,.01-1.91,0-.76-.02-1.27-.52-1.28-1.29,0-.41,0-.82,0-1.23Zm3.17-.92c-.46,0-.92,0-1.38,0-.18,0-.24,.07-.24,.24,0,.47,0,.94,0,1.41,0,.17,.06,.24,.23,.24,.91,0,1.83,0,2.74,0,.16,0,.22-.07,.22-.23,0-.48,0-.96,0-1.43,0-.18-.07-.23-.24-.23-.44,0-.89,0-1.33,0Z"/>
  <path class="cls-1" d="M108.89,35.9c.66,0,1.33-.01,1.99,0,.61,.01,1.1,.45,1.14,1.06,.07,.97,.06,1.94,0,2.91-.03,.53-.5,.97-1.03,1.01-.68,.05-1.36,.05-2.04,.02-.17,0-.33,.02-.5,.01-.5,0-1.01-.01-1.51-.02-.68-.02-1.2-.52-1.21-1.19-.01-.87-.01-1.74,0-2.62,.01-.65,.52-1.16,1.17-1.18,.66-.02,1.33,0,1.99,0Zm0,3.44c.45,0,.91,0,1.36,0,.16,0,.22-.06,.22-.22,0-.48,0-.96,0-1.43,0-.18-.06-.23-.24-.23-.91,0-1.81,0-2.72,0-.2,0-.24,.08-.24,.26,0,.44,.01,.89,0,1.33,0,.24,.09,.3,.31,.3,.44-.01,.87,0,1.31,0Z"/>
  <path class="cls-1" d="M146.9,35.89c.56,0,1.13,0,1.69,0,.96,0,1.42,.42,1.45,1.37,.02,.85,.03,1.69-.02,2.54-.03,.59-.52,1.07-1.12,1.09-1.34,.04-2.69,.04-4.03,0-.65-.02-1.14-.54-1.15-1.2-.01-.86-.01-1.71,0-2.57,0-.67,.5-1.19,1.16-1.22,.67-.02,1.34,0,2.01,0,0,0,0,0,0-.01Zm-.01,1.57c-.46,0-.92,0-1.38,0-.16,0-.23,.06-.23,.22,0,.49,0,.97,0,1.46,0,.15,.07,.21,.22,.21,.92,0,1.84,0,2.77,0,.15,0,.21-.06,.21-.21,0-.49,0-.97,0-1.46,0-.16-.06-.22-.22-.22-.45,0-.91,0-1.36,0Z"/>
  <path class="cls-1" d="M116.17,37.47c-.4,0-.81,0-1.21,0-.2,0-.28,.08-.26,.27,.03,.44,.04,.87,0,1.31-.02,.22,.08,.29,.3,.29,.78-.01,1.56,0,2.34,0,.27,0,.33,.06,.3,.33-.03,.32-.03,.64,0,.95,.02,.2-.04,.33-.27,.31-1.01-.07-2.03,.04-3.04-.02-.69-.04-1.19-.53-1.2-1.23,0-.64-.01-1.28,0-1.91,0-.24-.08-.3-.31-.29-.68,.04-.67,.03-.65-.66,0-.21,.02-.42,0-.63-.03-.25,.07-.32,.3-.3,.15,.01,.3,0,.45,0,.15,0,.21-.06,.21-.21,0-.31,0-.62,0-.93,0-.19,.07-.25,.25-.25,.37,0,.74,0,1.11,0,.18,0,.25,.07,.24,.24,0,.28,0,.55-.02,.83-.01,.26,.04,.33,.31,.33,.78,0,1.56,0,2.34-.01,.22,0,.31,.09,.29,.3-.03,.34-.03,.69,0,1.03,.02,.2-.07,.27-.26,.26-.4,0-.81,0-1.21,0Z"/>
  <path class="cls-1" d="M160.67,37.46c-.39,0-.79,0-1.18,0-.22,0-.31,.09-.29,.31,.03,.44,.04,.87,0,1.31-.02,.2,.07,.26,.27,.26,.79,0,1.58,0,2.37,0,.27,0,.33,.06,.3,.33-.03,.32-.03,.64,0,.95,.02,.25-.04,.33-.3,.31-1-.07-2,.04-2.99-.01-.71-.04-1.21-.52-1.22-1.24,0-.62,0-1.24,0-1.86,0-.31-.02-.33-.32-.33-.78,0-.62,.08-.63-.61,0-.24,0-.49,0-.73,0-.17,.06-.25,.24-.24,.17,0,.34,0,.5,0,.16,0,.23-.05,.22-.22,0-.31,0-.62,0-.93,0-.18,.06-.24,.23-.23,.38,0,.76,0,1.13,0,.16,0,.23,.07,.23,.23,0,.28,0,.55-.02,.83-.01,.27,.05,.34,.33,.34,.77,0,1.54,0,2.32-.02,.24,0,.32,.1,.29,.32-.03,.33-.03,.65,0,.98,.02,.21-.06,.3-.28,.3-.39-.01-.79,0-1.18,0,0,0,0,0,0,0Z"/>
  <path class="cls-1" d="M127.13,35.89c.71,0,1.43,0,2.14,0,.84,0,1.39,.62,1.32,1.45-.03,.33-.02,.67,0,1,.02,.3,0,.33-.28,.33-.36,0-.72,0-1.08,0-.16,0-.23-.06-.22-.22,.01-.25,0-.5,0-.75,0-.16-.05-.23-.22-.23-.91,0-1.81,0-2.72,0-.22,0-.24,.13-.24,.29,0,.92,.02,1.84,.02,2.77,0,.38-.03,.4-.42,.38-.29-.02-.59-.02-.88,.01-.19,.02-.3-.03-.29-.26,0-1.39,0-2.78,.01-4.18,0-.4,.18-.58,.62-.59,.75,0,1.49,0,2.24,0Z"/>
  <path class="cls-1" d="M153.07,35.89c.7,0,1.41,0,2.11,0,.87,.01,1.39,.54,1.35,1.39-.01,.36-.03,.72,0,1.08,.02,.22-.05,.32-.29,.31-.36-.02-.72,0-1.08,0-.16,0-.23-.06-.22-.22,.01-.23,0-.45,.01-.68,.02-.23-.05-.31-.29-.3-.86,.01-1.71,.01-2.57,0-.24,0-.32,.07-.32,.31,.02,.9,.02,1.79,.03,2.69,0,.07,0,.13,0,.2,0,.18-.1,.26-.27,.25-.36-.03-.72-.03-1.08,0-.16,.01-.25-.05-.24-.23,0-1.42,0-2.83,.01-4.25,0-.36,.2-.53,.61-.54,.75,0,1.49,0,2.24,0Z"/>
</svg>